<mxfile host="app.diagrams.net" modified="2020-08-04T16:08:43.367Z" agent="5.0 (X11; Linux x86_64) AppleWebKit/537.36 (KHTML, like Gecko) Chrome/84.0.4147.105 Safari/537.36" etag="UR9CxEcGoSWFbXvolZQr" version="13.5.8" type="github">
  <diagram id="FG5AmT2uNi08Y_IbeJHf" name="Page-1">
    <mxGraphModel dx="1422" dy="768" grid="1" gridSize="10" guides="1" tooltips="1" connect="1" arrows="1" fold="1" page="1" pageScale="1" pageWidth="850" pageHeight="1100" math="0" shadow="0">
      <root>
        <mxCell id="0" />
        <mxCell id="1" parent="0" />
        <mxCell id="xV9wB99mCH2JQ696OKFJ-1" value="Start" style="rounded=0;whiteSpace=wrap;html=1;fontStyle=1;fontSize=40;" vertex="1" parent="1">
          <mxGeometry x="320" y="80" width="200" height="80" as="geometry" />
        </mxCell>
        <mxCell id="xV9wB99mCH2JQ696OKFJ-2" value="" style="rounded=0;whiteSpace=wrap;html=1;fontSize=40;" vertex="1" parent="1">
          <mxGeometry x="40" y="200" width="120" height="40" as="geometry" />
        </mxCell>
        <mxCell id="xV9wB99mCH2JQ696OKFJ-3" value="" style="rounded=0;whiteSpace=wrap;html=1;fontSize=40;" vertex="1" parent="1">
          <mxGeometry x="200" y="200" width="120" height="40" as="geometry" />
        </mxCell>
        <mxCell id="xV9wB99mCH2JQ696OKFJ-4" value="" style="rounded=0;whiteSpace=wrap;html=1;fontSize=40;" vertex="1" parent="1">
          <mxGeometry x="360" y="200" width="120" height="40" as="geometry" />
        </mxCell>
        <mxCell id="xV9wB99mCH2JQ696OKFJ-5" value="" style="rounded=0;whiteSpace=wrap;html=1;fontSize=40;" vertex="1" parent="1">
          <mxGeometry x="520" y="200" width="120" height="40" as="geometry" />
        </mxCell>
        <mxCell id="xV9wB99mCH2JQ696OKFJ-6" value="" style="rounded=0;whiteSpace=wrap;html=1;fontSize=40;" vertex="1" parent="1">
          <mxGeometry x="680" y="200" width="120" height="40" as="geometry" />
        </mxCell>
      </root>
    </mxGraphModel>
  </diagram>
</mxfile>
